<svg id="Layer_1" data-name="Layer 1" xmlns="http://www.w3.org/2000/svg" viewBox="0 0 46.12 36.16"><defs><style>.cls-1{fill:#333;fill-rule:evenodd;}</style></defs><path class="cls-1" d="M15.5,20.14A1.69,1.69,0,0,0,15,18.91a1.77,1.77,0,0,0-2.49,0A1.68,1.68,0,0,0,12,20.14a1.71,1.71,0,0,0,.51,1.25,1.75,1.75,0,0,0,2.49,0A1.71,1.71,0,0,0,15.5,20.14ZM25.19,8a50.28,50.28,0,0,1,8.31.69,1.88,1.88,0,0,1,1.35,1.07h0l2.76,5.57a6.87,6.87,0,0,0,.65,1l1.62,1.85.26.33a3.44,3.44,0,0,1,.55,2.41c0,.41-.09.8-.13,1.18v.08c-.09.76-.19,1.48-.29,2.14v1.8h2.38V8.15h5.62V9.44l-2.73,2.73V36.86l2.74,2.74v4.52H29.47V41.23H42.64V27.93H40.26v2.56a1,1,0,0,1-.3.74,1.06,1.06,0,0,1-.67.3H36.8a1,1,0,0,1-1-1v-2c-1.66.11-3.32.2-5,.26a1.38,1.38,0,0,0,.28-.85v-8a1.4,1.4,0,0,0-1.41-1.4H23.07a4,4,0,0,0-2.45.65l-2,1.3-.08.05h0l-.06,0a5.15,5.15,0,0,0-1.93,1.85,4.65,4.65,0,0,0-.31,1.8v1.87a3.12,3.12,0,0,0,.74,2.09,0,0,0,0,1,0,0h0l0,0a3.29,3.29,0,0,0,.43.41c-1,0-1.92-.1-2.88-.17v2a1,1,0,0,1-.32.72,1,1,0,0,1-.65.3H11.08a1,1,0,0,1-.65-.3,1,1,0,0,1-.31-.74V27.93H7.76v13.3H20.92v2.89H2.14V39.6l2.74-2.74V12.17L2.14,9.44V8.15H7.76V26.08h2.36v-1.8c-.11-.66-.21-1.38-.3-2.14v-.08c-.05-.38-.09-.77-.13-1.18a3.39,3.39,0,0,1,.55-2.41,3.75,3.75,0,0,1,.26-.33l1.63-1.85a9.75,9.75,0,0,0,.64-1l2.75-5.57h0a2.15,2.15,0,0,1,.35-.52,2,2,0,0,1,1-.55A50.28,50.28,0,0,1,25.19,8Zm0,1.72h0a51.87,51.87,0,0,0-7.37.52h0a2,2,0,0,0-.37.11,1.35,1.35,0,0,0-.64.65l-1.7,3.58,1.5-.06q4.3-.2,8.6-.21h0c2.86,0,5.73.08,8.59.21l1.5.06L33.6,11a1.39,1.39,0,0,0-.66-.65,1.69,1.69,0,0,0-.34-.11h0A52,52,0,0,0,25.2,9.68Zm9.68,10.46a1.68,1.68,0,0,0,.52,1.25,1.65,1.65,0,0,0,1.24.52,1.76,1.76,0,0,0,1.25-3,1.72,1.72,0,0,0-1.25-.51,1.68,1.68,0,0,0-1.24.51A1.65,1.65,0,0,0,34.88,20.14Z" transform="translate(-2.14 -7.96)"/><path class="cls-1" d="M23.07,19.91h6.66v4H26.82v2.15h2.91v1.81h-.8a1.94,1.94,0,0,0-1.35.58A2,2,0,0,0,27,29.91a1.94,1.94,0,0,0,.45,1.28l0,0a3,3,0,0,1,.59,1.85V44.12H22.33V33.06a3.12,3.12,0,0,1,.6-1.85l0,0a1.9,1.9,0,0,0,.46-1.28,1.94,1.94,0,0,0-.6-1.43,1.9,1.9,0,0,0-1.34-.58h-2.2A1.71,1.71,0,0,1,18,27.31a1.81,1.81,0,0,1-.44-1.23h6V23.93h-6a2.45,2.45,0,0,1,1.36-2h0l2.43-1.58A2.88,2.88,0,0,1,23.07,19.91Z" transform="translate(-2.14 -7.96)"/></svg>