<?xml version="1.0" encoding="iso-8859-1"?>
<!-- Generator: Adobe Illustrator 19.0.0, SVG Export Plug-In . SVG Version: 6.00 Build 0) -->
<svg version="1.1" id="Layer_1" xmlns="http://www.w3.org/2000/svg" xmlns:xlink="http://www.w3.org/1999/xlink" x="0px" y="0px" viewBox="0 0 512 512" style="enable-background:new 0 0 512 512; fill: #fff;" xml:space="preserve">
  <g>
    <g>
      <path d="M256,0.001c-141.16,0-256,114.84-256,256C0,397.16,114.84,511.999,256,511.999c141.16,0,256-114.84,256-255.999
			C512,114.841,397.16,0.001,256,0.001z M256,491.519c-129.87,0-235.52-105.655-235.52-235.519
			c0-129.865,105.65-235.52,235.52-235.52c129.87,0,235.52,105.655,235.52,235.52C491.52,385.865,385.87,491.519,256,491.519z"/>
    </g>
  </g>
  <g>
    <g>
      <path d="M375.94,136.186c-2.99-3.03-7.55-3.901-11.42-2.2l-256,112.64c-4.44,1.955-6.9,7.088-5.9,11.823
			c1,4.74,5.18,8.479,10.02,8.479h123.64l9.51,123.321c0.36,4.655,3.82,8.304,8.41,9.124c0.61,0.11,1.21,0.074,1.8,0.074
			c3.95,0,7.62-2.332,9.31-6.017l112.64-245.781C379.72,143.782,378.92,139.216,375.94,136.186z M263.18,348.889l-7.21-93.331
			c-0.41-5.335-4.86-9.111-10.21-9.111h-84.42l186.77-82.524L263.18,348.889z"/>
    </g>
  </g>
  <g></g>
  <g></g>
  <g></g>
  <g></g>
  <g></g>
  <g></g>
  <g></g>
  <g></g>
  <g></g>
  <g></g>
  <g></g>
  <g></g>
  <g></g>
  <g></g>
  <g></g>
</svg>
